solid OpenSCAD_Model
  facet normal -1 0 0
    outer loop
      vertex -20 -10 0
      vertex -20 10 1.6
      vertex -20 10 0
    endloop
  endfacet
  facet normal -1 -0 0
    outer loop
      vertex -20 10 1.6
      vertex -20 -10 0
      vertex -20 -10 1.6
    endloop
  endfacet
  facet normal -0 0 1
    outer loop
      vertex -20 10 1.6
      vertex 20 -10 1.6
      vertex 20 10 1.6
    endloop
  endfacet
  facet normal 0 0 1
    outer loop
      vertex 20 -10 1.6
      vertex -20 10 1.6
      vertex -20 -10 1.6
    endloop
  endfacet
  facet normal 1 -0 0
    outer loop
      vertex 20 -10 1.6
      vertex 20 10 0
      vertex 20 10 1.6
    endloop
  endfacet
  facet normal 1 0 0
    outer loop
      vertex 20 10 0
      vertex 20 -10 1.6
      vertex 20 -10 0
    endloop
  endfacet
  facet normal 0 1 -0
    outer loop
      vertex 20 10 0
      vertex -20 10 1.6
      vertex 20 10 1.6
    endloop
  endfacet
  facet normal 0 1 0
    outer loop
      vertex -20 10 1.6
      vertex 20 10 0
      vertex -20 10 0
    endloop
  endfacet
  facet normal 0 0 -1
    outer loop
      vertex 20 -10 0
      vertex 10 -8.5 0
      vertex 20 10 0
    endloop
  endfacet
  facet normal 0 0 -1
    outer loop
      vertex 20 -10 0
      vertex -10 -8.5 0
      vertex 10 -8.5 0
    endloop
  endfacet
  facet normal -0 0 -1
    outer loop
      vertex -10 -8.5 0
      vertex -20 -10 0
      vertex -10 8.5 0
    endloop
  endfacet
  facet normal 0 0 -1
    outer loop
      vertex -20 -10 0
      vertex -10 -8.5 0
      vertex 20 -10 0
    endloop
  endfacet
  facet normal 0 0 -1
    outer loop
      vertex 10 8.5 0
      vertex 20 10 0
      vertex 10 -8.5 0
    endloop
  endfacet
  facet normal 0 0 -1
    outer loop
      vertex -10 8.5 0
      vertex 20 10 0
      vertex 10 8.5 0
    endloop
  endfacet
  facet normal 0 0 -1
    outer loop
      vertex -10 8.5 0
      vertex -20 10 0
      vertex 20 10 0
    endloop
  endfacet
  facet normal 0 0 -1
    outer loop
      vertex -20 10 0
      vertex -10 8.5 0
      vertex -20 -10 0
    endloop
  endfacet
  facet normal 0 -1 0
    outer loop
      vertex -20 -10 0
      vertex 20 -10 1.6
      vertex -20 -10 1.6
    endloop
  endfacet
  facet normal 0 -1 -0
    outer loop
      vertex 20 -10 1.6
      vertex -20 -10 0
      vertex 20 -10 0
    endloop
  endfacet
  facet normal 1 -0 0
    outer loop
      vertex -10 -8.5 1.2
      vertex -10 8.5 0
      vertex -10 8.5 1.2
    endloop
  endfacet
  facet normal 1 0 0
    outer loop
      vertex -10 8.5 0
      vertex -10 -8.5 1.2
      vertex -10 -8.5 0
    endloop
  endfacet
  facet normal 0 0 -1
    outer loop
      vertex -10 -8.5 1.2
      vertex 10 8.5 1.2
      vertex 10 -8.5 1.2
    endloop
  endfacet
  facet normal -0 0 -1
    outer loop
      vertex 10 8.5 1.2
      vertex -10 -8.5 1.2
      vertex -10 8.5 1.2
    endloop
  endfacet
  facet normal -1 0 0
    outer loop
      vertex 10 -8.5 0
      vertex 10 8.5 1.2
      vertex 10 8.5 0
    endloop
  endfacet
  facet normal -1 -0 0
    outer loop
      vertex 10 8.5 1.2
      vertex 10 -8.5 0
      vertex 10 -8.5 1.2
    endloop
  endfacet
  facet normal 0 1 -0
    outer loop
      vertex 10 -8.5 0
      vertex -10 -8.5 1.2
      vertex 10 -8.5 1.2
    endloop
  endfacet
  facet normal 0 1 0
    outer loop
      vertex -10 -8.5 1.2
      vertex 10 -8.5 0
      vertex -10 -8.5 0
    endloop
  endfacet
  facet normal 0 -1 0
    outer loop
      vertex -10 8.5 0
      vertex 10 8.5 1.2
      vertex -10 8.5 1.2
    endloop
  endfacet
  facet normal 0 -1 -0
    outer loop
      vertex 10 8.5 1.2
      vertex -10 8.5 0
      vertex 10 8.5 0
    endloop
  endfacet
endsolid OpenSCAD_Model
